<?xml version="1.0" encoding="UTF-8" standalone="no"?>
<!-- Created with Inkscape (http://www.inkscape.org/) -->

<svg
   width="108.61378mm"
   height="20.044161mm"
   viewBox="0 0 108.61378 20.044161"
   version="1.1"
   id="svg848"
   xmlns="http://www.w3.org/2000/svg"
   xmlns:svg="http://www.w3.org/2000/svg">
  <defs
     id="defs845" />
  <path
     style="fill:none;fill-opacity:1;stroke:#1e293b;stroke-width:1.88391;stroke-linecap:round;stroke-linejoin:round;stroke-miterlimit:4;stroke-dasharray:none;stroke-opacity:1;stop-color:#000000"
     id="path1390"
     d="m 15.69354,14.053451 a 7.5955715,7.5955715 0 0 1 -7.87931,5.01408 7.5955715,7.5955715 0 0 1 -6.78547,-6.41731 7.5955715,7.5955715 0 0 1 4.5672,-8.146487" />
  <path
     style="fill:none;fill-opacity:1;stroke:#1e293b;stroke-width:1.88391;stroke-linecap:round;stroke-miterlimit:4;stroke-dasharray:none;stroke-opacity:1;stop-color:#000000"
     id="path1392"
     d="M 12.20118,14.300321 A 4.6071973,4.6072307 0 0 1 7.47754,15.990161 4.6071973,4.6072307 0 0 1 4.01092,12.363712 4.6071973,4.6072307 0 0 1 5.91176,7.720926" />
  <path
     style="color:#000000;fill:#1c48e6;fill-opacity:1;stroke-width:0.209322;stroke-linecap:round"
     d="m 7.49079,3.910961 a 1.0466146,1.0466146 0 0 0 1.04662,1.046603 c 3.62927,0 6.54869,2.919831 6.54869,6.549107 a 1.0466146,1.0466146 0 0 0 1.04662,1.04662 1.0466146,1.0466146 0 0 0 1.04662,-1.04662 c 0,-4.760538 -3.8814,-8.642329 -8.64193,-8.642329 A 1.0466146,1.0466146 0 0 0 7.49079,3.910961 Z"
     id="path1396" />
  <path
     style="color:#000000;fill:#1c48e6;fill-opacity:1;stroke:none;stroke-width:0.209322;stroke-linecap:round"
     d="m 7.49079,6.899117 a 1.0466146,1.0466146 0 0 0 1.04662,1.046619 c 1.97887,0 3.56054,1.582081 3.56054,3.560935 a 1.0466146,1.0466146 0 0 0 1.0466,1.04662 1.0466146,1.0466146 0 0 0 1.04662,-1.04662 c 0,-3.110116 -2.54363,-5.654157 -5.65376,-5.654157 A 1.0466146,1.0466146 0 0 0 7.49079,6.899117 Z"
     id="path3724" />
  <path
     style="color:#000000;fill:#1c48e6;fill-opacity:1;stroke-width:0.209322;stroke-linecap:round"
     d="m 7.51397,1.046606 a 1.0466146,1.0466146 0 0 0 1.04662,1.046619 c 5.12366,0 9.23963,4.065307 9.23963,9.088778 a 1.0466146,1.0466146 0 0 0 1.04662,1.046619 1.0466146,1.0466146 0 0 0 1.04662,-1.046619 C 19.89346,5.01041 14.79888,3e-6 8.56059,3e-6 A 1.0466146,1.0466146 0 0 0 7.51397,1.046606 Z"
     id="path1402" />
  <circle
     style="fill:#1c48e6;fill-opacity:1;stroke:none;stroke-width:2.43769;stroke-linecap:round;stroke-miterlimit:4;stroke-dasharray:none;stroke-opacity:1;stop-color:#000000"
     id="circle1404"
     cx="5.5795207"
     cy="13.195731"
     r="2.302552"
     transform="rotate(-13.659358)" />
  <path
     d="m 27.6328,14.514731 q -1.32676,0 -2.32183,-0.57739 -1.01964,-0.57738 -1.58474,-1.584735 -0.55282,-1.019638 -0.55282,-2.334112 0,-1.339043 0.5651,-2.358681 0.55282,-1.044208 1.56017,-1.609309 1.01964,-0.577385 2.33412,-0.577385 1.2899,0 2.30954,0.577385 1.00735,0.577386 1.56017,1.609309 0.55281,1.031923 0.55281,2.358681 0,1.314474 -0.55281,2.334112 -0.55282,1.031925 -1.57246,1.597025 -1.00735,0.5651 -2.29725,0.5651 z m -2.87465,-4.496237 q 0,0.92136 0.35626,1.621594 0.35626,0.700233 1.00735,1.081063 0.6511,0.38083 1.49875,0.38083 0.84765,0 1.49875,-0.38083 0.65109,-0.38083 0.99506,-1.068778 0.35626,-0.700234 0.35626,-1.633879 0,-0.945929 -0.36854,-1.658448 -0.35626,-0.712518 -1.00735,-1.093347 -0.6511,-0.393113 -1.47418,-0.393113 -0.82308,0 -1.47418,0.393113 -0.65109,0.380829 -1.01963,1.093347 -0.36855,0.712519 -0.36855,1.658448 z"
     style="font-weight:bold;font-size:12.2848px;line-height:1.25;font-family:Opentalk-750;-inkscape-font-specification:'Opentalk-750, Bold';fill:#1c48e6;stroke-width:0.30712;fill-opacity:1"
     id="path514" />
  <path
     d="m 33.01351,8.618027 0.92136,1.609309 v 6.424955 h 1.49875 v -3.12034 q 0.39311,0.46682 0.93364,0.7248 0.58967,0.25798 1.20391,0.25798 0.92136,0 1.56017,-0.42997 0.7248,-0.44225 1.06878,-1.16705 0.38083,-0.761661 0.38083,-1.719876 0,-0.945929 -0.38083,-1.707587 -0.34398,-0.724803 -1.0565,-1.191626 -0.66337,-0.429968 -1.57245,-0.429968 -1.56017,0 -2.45696,1.425037 l -0.8108,-1.425037 z m 2.42011,2.579808 q 0,-0.92136 0.49139,-1.449606 0.50367,-0.552816 1.30219,-0.552816 0.83536,0 1.32675,0.552816 0.47911,0.515961 0.47911,1.449606 0,0.61424 -0.22112,1.044208 -0.19656,0.454538 -0.62653,0.712518 -0.39311,0.23341 -0.94593,0.23341 -0.52825,0 -0.94593,-0.23341 -0.36854,-0.22113 -0.63881,-0.712518 -0.22112,-0.466822 -0.22112,-1.044208 z"
     style="font-weight:bold;font-size:12.2848px;line-height:1.25;font-family:Opentalk-750;-inkscape-font-specification:'Opentalk-750, Bold';fill:#1c48e6;stroke-width:0.30712;fill-opacity:1"
     id="path511" />
  <path
     d="m 41.95683,9.490248 q -0.39312,0.749373 -0.39312,1.707587 0,0.94593 0.4054,1.719876 0.46682,0.77394 1.15477,1.17934 0.71252,0.41768 1.73216,0.41768 0.85994,0 1.48646,-0.23341 0.7248,-0.27027 1.27762,-0.67567 -0.60195,-1.05649 -0.63881,-1.09334 -0.35626,0.30712 -0.89679,0.51596 -0.52825,0.20884 -1.1302,0.20884 -0.83537,0 -1.33904,-0.39311 -0.51597,-0.47911 -0.58967,-1.289907 h 4.77878 l 0.0246,-0.356259 q 0,-0.982784 -0.34397,-1.769011 Q 47.11647,8.679451 46.42852,8.249483 45.77743,7.85637 44.80693,7.85637 q -0.9705,0 -1.73216,0.417683 -0.74937,0.479107 -1.11791,1.216195 z m 1.10563,1.044208 Q 43.24673,9.797368 43.6767,9.453394 44.20495,9.08485 44.8069,9.08485 q 0.60196,0 1.05649,0.393113 0.4054,0.33169 0.47911,1.056493 z"
     style="font-weight:bold;font-size:12.2848px;line-height:1.25;font-family:Opentalk-750;-inkscape-font-specification:'Opentalk-750, Bold';fill:#1c48e6;stroke-width:0.30712;fill-opacity:1"
     id="path508" />
  <path
     d="m 55.45781,10.485317 q 0,-1.22848 -0.62653,-1.904144 Q 54.58559,8.298622 54.1679,8.102066 53.67651,7.868654 52.878,7.868654 q -0.55282,0 -1.10563,0.270266 -0.55282,0.257981 -1.06878,1.031923 l -0.76166,-1.302189 -1.30219,0.737088 0.92136,1.621594 v 4.090835 h 1.52332 v -3.46431 q 0,-0.491392 0.18427,-0.896791 0.19656,-0.405398 0.54053,-0.58967 0.35626,-0.233411 0.78623,-0.233411 0.68795,0 1.00735,0.393113 0.34398,0.343975 0.34398,1.093348 v 3.697721 h 1.51103 z"
     style="font-weight:bold;font-size:12.2848px;line-height:1.25;font-family:Opentalk-750;-inkscape-font-specification:'Opentalk-750, Bold';fill:#1c48e6;stroke-width:0.30712;fill-opacity:1"
     id="path505" />
  <path
     d="M 60.26114,14.318171 V 5.645106 h 4.0417 q 1.36361,0 2.11299,0.737088 0.74937,0.724803 0.74937,1.990137 0,1.25305 -0.74937,1.990138 -0.74938,0.724803 -2.11299,0.724803 h -2.48153 v 3.230899 z m 3.86971,-4.569942 q 0.70024,0 1.06878,-0.356259 0.38083,-0.35626 0.38083,-1.019639 0,-0.675664 -0.38083,-1.019638 -0.36854,-0.356259 -1.06878,-0.356259 h -2.30954 v 2.751795 z"
     style="font-size:12.2848px;line-height:1.25;font-family:Arcon;-inkscape-font-specification:'Arcon, Normal';fill:#1e293b;stroke-width:0.30712;fill-opacity:1"
     id="path502" />
  <path
     d="m 71.20687,14.514731 q -0.94592,0 -1.70758,-0.4054 -0.76166,-0.41768 -1.20391,-1.16705 -0.42997,-0.749377 -0.42997,-1.744446 0,-0.958214 0.41768,-1.719872 0.42997,-0.761657 1.19163,-1.179341 0.77394,-0.429968 1.74444,-0.429968 0.9705,0 1.71987,0.429968 0.76166,0.417684 1.17934,1.179341 0.42997,0.749373 0.42997,1.707587 0,0.9705 -0.42997,1.732161 -0.41768,0.74937 -1.17934,1.17934 -0.74937,0.41768 -1.73216,0.41768 z M 69.41329,11.18555 q 0,0.933645 0.4914,1.486461 0.49139,0.55282 1.30218,0.55282 0.8108,0 1.28991,-0.54054 0.49139,-0.540526 0.49139,-1.498741 0,-0.933644 -0.49139,-1.48646 -0.49139,-0.552816 -1.28991,-0.552816 -0.81079,0 -1.30218,0.5651 -0.4914,0.552816 -0.4914,1.474176 z"
     style="font-size:12.2848px;line-height:1.25;font-family:Arcon;-inkscape-font-specification:'Arcon, Normal';fill:#1e293b;stroke-width:0.30712;fill-opacity:1"
     id="path499" />
  <path
     d="m 75.88737,9.490248 q -0.36854,0.687949 -0.36854,1.707587 0,0.982784 0.36854,1.719876 0.45454,0.83536 1.06878,1.15477 0.66338,0.42997 1.56017,0.42997 0.3194,0 0.63881,-0.0737 0.33169,-0.0737 0.5651,-0.18428 0.34397,-0.17198 0.66338,-0.46682 0.33169,-0.30712 0.57738,-0.63881 l 0.78623,1.36362 1.28991,-0.73709 -0.89679,-1.584742 V 5.411705 H 80.64159 V 8.851448 Q 80.3099,8.42148 79.72023,8.126645 79.1797,7.85638 78.50403,7.85638 q -0.83536,0 -1.54788,0.442252 -0.62652,0.319405 -1.06878,1.191626 z m 1.16706,1.707587 q 0,-0.982784 0.50368,-1.449606 0.46682,-0.565101 1.2899,-0.565101 0.4054,0 0.73709,0.147418 0.33169,0.147417 0.55281,0.417683 0.50368,0.466822 0.50368,1.449606 0,0.601955 -0.22113,1.031923 -0.22112,0.466823 -0.63881,0.700233 -0.39311,0.2457 -0.94593,0.2457 -0.51596,0 -0.93364,-0.2457 -0.4054,-0.25798 -0.62653,-0.700233 -0.22112,-0.429968 -0.22112,-1.031923 z"
     style="font-size:12.2848px;line-height:1.25;font-family:Arcon;-inkscape-font-specification:'Arcon, Normal';fill:#1e293b;stroke-width:0.30712;fill-opacity:1"
     id="path496" />
  <path
     d="m 88.93381,14.121621 q 0.35626,-0.15971 0.63881,-0.4054 l -0.67566,-1.16706 q -0.35626,0.29484 -0.71252,0.41769 -0.47911,0.17198 -0.89679,0.17198 -0.60195,0 -1.05649,-0.25798 -0.44226,-0.27026 -0.6511,-0.700232 -0.20884,-0.479107 -0.20884,-0.982784 0,-0.515961 0.20884,-0.995069 0.22113,-0.442252 0.6511,-0.687948 0.45454,-0.257981 1.05649,-0.257981 0.46682,0 0.92136,0.159702 0.39311,0.159703 0.68795,0.429968 L 89.58491,8.654882 Q 89.25322,8.409186 88.89696,8.224914 88.66355,8.126634 88.14759,7.966933 87.70533,7.85637 87.23851,7.85637 q -0.9705,0 -1.80586,0.429968 -0.78623,0.454537 -1.19163,1.20391 -0.41768,0.749373 -0.41768,1.719872 0,0.995069 0.41768,1.719871 0.41768,0.73709 1.19163,1.16706 0.79851,0.41768 1.80586,0.41768 0.52825,0 0.93365,-0.12285 0.38082,-0.086 0.76165,-0.27026 z"
     style="font-size:12.2848px;line-height:1.25;font-family:Arcon;-inkscape-font-specification:'Arcon, Normal';fill:#1e293b;stroke-width:0.30712;fill-opacity:1"
     id="path493" />
  <path
     d="m 90.7765,9.477963 q -0.4054,0.823082 -0.4054,1.719872 0,0.909075 0.4054,1.744446 0.38082,0.73708 1.08106,1.14248 0.66338,0.42997 1.54788,0.42997 0.6511,0 1.20391,-0.27027 0.44226,-0.20884 0.78623,-0.55281 0.34397,-0.34398 0.46682,-0.54053 l 0.79851,1.36361 1.31448,-0.7248 -0.93365,-1.597027 V 8.065211 H 95.51843 V 8.863723 Q 95.18674,8.42147 94.60935,8.11435 94.03197,7.868654 93.40544,7.868654 q -0.90907,0 -1.54788,0.429968 -0.66338,0.35626 -1.08106,1.179341 z m 1.17934,1.719872 q 0,-0.884505 0.46682,-1.449606 0.23341,-0.270266 0.57738,-0.405399 0.33169,-0.147417 0.72481,-0.147417 0.82308,0 1.31447,0.552816 0.47911,0.515961 0.47911,1.449606 0,0.61424 -0.20884,1.068778 -0.22113,0.454538 -0.62653,0.700238 -0.39311,0.24569 -0.9705,0.24569 -0.49139,0 -0.95821,-0.24569 -0.41769,-0.25799 -0.57739,-0.700238 -0.22112,-0.503677 -0.22112,-1.068778 z"
     style="font-size:12.2848px;line-height:1.25;font-family:Arcon;-inkscape-font-specification:'Arcon, Normal';fill:#1e293b;stroke-width:0.30712;fill-opacity:1"
     id="path490" />
  <path
     d="m 103.81064,11.455816 q -0.22113,-0.343974 -0.77395,-0.58967 -0.14741,-0.06142 -0.66338,-0.196557 -0.50367,-0.147418 -0.71251,-0.208842 -0.98279,-0.257981 -1.06878,-0.30712 -0.25798,-0.171987 -0.25798,-0.393113 0,-0.294836 0.29483,-0.454538 0.33169,-0.196557 0.74938,-0.196557 0.51596,0 0.94592,0.196557 0.4914,0.221126 0.82309,0.466822 l 0.63881,-1.093347 q -0.52825,-0.343974 -1.11792,-0.58967 -0.51596,-0.221127 -1.32676,-0.221127 -0.76166,0 -1.31447,0.245696 -0.5651,0.233412 -0.88451,0.687949 -0.29483,0.442253 -0.29483,1.031923 0,0.589671 0.25798,0.958215 0.3194,0.429968 0.73709,0.58967 0.14741,0.06142 1.10563,0.319405 0.12285,0.03685 0.65109,0.184272 0.54053,0.147418 0.7248,0.245696 0.22113,0.110563 0.22113,0.405401 0,0.33169 -0.30712,0.51596 -0.3194,0.19656 -0.85993,0.19656 -0.60196,0 -1.14249,-0.23342 -0.54053,-0.23341 -1.01964,-0.638805 l -0.63881,1.105635 q 0.62653,0.52824 1.24077,0.74937 0.63881,0.28255 1.5356,0.28255 0.84765,0 1.46189,-0.27027 0.61424,-0.25798 0.93364,-0.7248 0.33169,-0.46682 0.33169,-1.081061 0,-0.626525 -0.27026,-0.982784 z"
     style="font-size:12.2848px;line-height:1.25;font-family:Arcon;-inkscape-font-specification:'Arcon, Normal';fill:#1e293b;stroke-width:0.30712;fill-opacity:1"
     id="path487" />
  <path
     d="m 108.61398,13.519661 -1.00735,1.11792 -1.49875,-1.35133 q -0.4791,-0.47911 -0.4791,-1.056493 V 9.305976 h -0.9705 V 8.065211 h 0.9705 V 6.419048 h 1.52331 v 1.646163 h 1.28991 v 1.240765 h -1.28991 v 2.407821 q 0,0.503677 0.30712,0.773942 z"
     style="font-size:12.2848px;line-height:1.25;font-family:Arcon;-inkscape-font-specification:'Arcon, Normal';fill:#1e293b;stroke-width:0.30712;fill-opacity:1"
     id="path484" />
</svg>
