<?xml version="1.0" encoding="UTF-8" standalone="no"?>
<svg
   version="1.1"
   width="256"
   height="256"
   viewBox="0 0 256 256"
   xml:space="preserve"
   id="svg2"
   sodipodi:docname="play-button.svg"
   inkscape:version="1.3 (0e150ed, 2023-07-21)"
   xmlns:inkscape="http://www.inkscape.org/namespaces/inkscape"
   xmlns:sodipodi="http://sodipodi.sourceforge.net/DTD/sodipodi-0.dtd"
   xmlns="http://www.w3.org/2000/svg"
   xmlns:svg="http://www.w3.org/2000/svg"><sodipodi:namedview
   id="namedview2"
   pagecolor="#5f5f5f"
   bordercolor="#666666"
   borderopacity="1.0"
   inkscape:showpageshadow="2"
   inkscape:pageopacity="0.0"
   inkscape:pagecheckerboard="0"
   inkscape:deskcolor="#d1d1d1"
   inkscape:zoom="2.3855101"
   inkscape:cx="127.01686"
   inkscape:cy="124.08248"
   inkscape:window-width="1920"
   inkscape:window-height="1027"
   inkscape:window-x="0"
   inkscape:window-y="25"
   inkscape:window-maximized="0"
   inkscape:current-layer="svg2" />&#10;&#10;    <defs
   id="defs1">&#10;    &#10;        &#10;        &#10;    </defs>&#10;    <path
   id="path1"
   style="fill:#e52343;fill-rule:nonzero;stroke:none;stroke-width:2.55452;stroke-linecap:butt;stroke-linejoin:miter;stroke-miterlimit:10;stroke-dasharray:none;fill-opacity:1"
   d="M 128 13.046875 C 64.614697 13.046875 13.046875 64.614697 13.046875 128 C 13.046875 191.38531 64.614697 242.95312 128 242.95312 C 191.38531 242.95313 242.95312 191.38531 242.95312 128 C 242.95313 64.614697 191.38531 13.046875 128 13.046875 z M 128 38.591797 C 177.29968 38.591797 217.4082 78.70032 217.4082 128 C 217.4082 177.29968 177.29968 217.4082 128 217.4082 C 78.70032 217.4082 38.591797 177.29968 38.591797 128 C 38.591797 78.70032 78.70032 38.591797 128 38.591797 z M 101.89258 83.941406 C 98.811469 83.995411 96.009766 86.475263 96.009766 89.925781 L 96.009766 128 L 96.009766 166.08008 C 96.009766 170.68076 100.98761 173.55493 104.97266 171.25586 L 137.95312 152.2168 L 170.93164 133.17578 C 174.91414 130.87671 174.91414 125.12524 170.93164 122.82617 L 137.95312 103.78906 L 104.97266 84.75 C 103.97703 84.175233 102.91961 83.923405 101.89258 83.941406 z " />&#10;</svg>
