<?xml version="1.0" encoding="UTF-8" standalone="no"?>
<svg
   version="1.1"
   width="256"
   height="256"
   viewBox="0 0 256 256"
   xml:space="preserve"
   id="svg2"
   sodipodi:docname="play-button.svg"
   inkscape:version="1.3 (0e150ed, 2023-07-21)"
   xmlns:inkscape="http://www.inkscape.org/namespaces/inkscape"
   xmlns:sodipodi="http://sodipodi.sourceforge.net/DTD/sodipodi-0.dtd"
   xmlns="http://www.w3.org/2000/svg"
   xmlns:svg="http://www.w3.org/2000/svg"><sodipodi:namedview
   id="namedview2"
   pagecolor="#5f5f5f"
   bordercolor="#666666"
   borderopacity="1.0"
   inkscape:showpageshadow="2"
   inkscape:pageopacity="0.0"
   inkscape:pagecheckerboard="0"
   inkscape:deskcolor="#d1d1d1"
   inkscape:zoom="2.3855101"
   inkscape:cx="127.01686"
   inkscape:cy="124.08248"
   inkscape:window-width="1920"
   inkscape:window-height="1027"
   inkscape:window-x="0"
   inkscape:window-y="25"
   inkscape:window-maximized="0"
   inkscape:current-layer="svg2" />&#10;&#10;    <defs
   id="defs1">&#10;    &#10;        &#10;        &#10;    </defs>&#10;    <circle
   style="opacity:1;fill:#ffffff;fill-opacity:1;stroke-width:1.82173;stroke-linecap:square;stroke-miterlimit:1000;paint-order:fill markers stroke"
   id="path3"
   cx="128"
   cy="128"
   r="78.389946" /><path
   id="path2"
   style="fill:#ffffff;fill-opacity:1;fill-rule:nonzero;stroke:none;stroke-width:2.55452;stroke-linecap:butt;stroke-linejoin:miter;stroke-miterlimit:10;stroke-dasharray:none"
   d="M 126.875,1.0566406 C 99.195208,1.2356266 71.665414,10.839081 49.918367,27.971579 28.321136,44.840624 12.294607,68.813776 5.3213407,95.344536 c -6.8526818,25.682474 -5.42274305,53.532224 4.2272858,78.316104 8.8020285,22.81522 24.3574505,42.96635 44.2065255,57.25154 16.915779,12.24684 36.887435,20.27976 57.613998,22.93657 24.82561,3.28929 50.63378,-0.89544 73.0325,-12.13974 22.34831,-11.10376 41.30897,-28.92395 53.70862,-50.58648 10.43852,-18.12326 16.30288,-38.86599 16.78868,-59.78157 0.61407,-23.368 -5.29751,-46.912124 -17.14768,-67.083904 C 223.92066,40.514133 202.25562,21.374132 176.85534,10.838658 161.0871,4.2420067 143.96855,0.87804722 126.875,1.0566406 Z m 1.14844,49.5351564 c 1.28624,0.0097 2.65286,0.03519 3.82377,0.103986 5.08832,0.247192 10.14898,1.008556 15.09029,2.245623 0.5164,0.143936 1.37068,0.351728 2.01277,0.542668 15.11837,4.23913 28.84275,13.234603 38.79225,25.378296 1.60381,1.939162 3.10612,3.961635 4.51334,6.047786 0.46135,0.684381 1.06945,1.625986 1.56578,2.423244 2.67006,4.310529 4.92223,8.879627 6.70766,13.62558 0.27886,0.76421 0.65829,1.80546 0.94891,2.68494 2.25555,6.74265 3.52189,13.80709 3.84406,20.90686 0.0629,1.40345 0.0895,3.04022 0.0682,4.53553 -0.0552,3.79274 -0.39545,7.77673 -1.03465,11.60452 -0.22842,1.38095 -0.48422,2.72564 -0.76062,3.96533 -3.48424,16.01618 -12.30777,30.78199 -24.64706,41.55481 -12.94926,11.4208 -29.82776,18.30018 -47.08277,19.09266 -13.76826,0.69042 -27.71579,-2.33946 -39.895673,-8.81579 -7.226762,-3.80518 -13.823614,-8.78721 -19.506796,-14.64995 -0.334674,-0.35242 -0.913143,-0.94668 -1.334633,-1.41142 -5.498822,-5.96168 -10.076962,-12.77467 -13.473961,-20.14131 -0.17604,-0.41577 -0.517477,-1.13917 -0.747588,-1.68626 -0.461732,-1.08348 -0.915873,-2.18478 -1.295561,-3.19677 -2.634572,-6.92838 -4.232091,-14.24356 -4.792789,-21.6326 -0.05569,-0.83391 -0.128176,-1.94917 -0.160543,-2.89326 -0.455715,-11.58306 1.743366,-23.26224 6.422262,-33.870411 0.198955,-0.425007 0.446084,-1.008667 0.666287,-1.468825 7.039593,-15.236402 19.175249,-28.041425 34.002425,-35.904107 8.164017,-4.366955 17.13289,-7.204956 26.31176,-8.396599 0.47075,-0.05872 1.1314,-0.145855 1.60684,-0.189805 2.77459,-0.302805 5.56507,-0.451694 8.35605,-0.454726 z m -26.6543,21.363281 c -8.593502,0.118856 -16.441872,7.349188 -17.237798,15.910206 -0.149777,3.925011 -0.09422,7.859904 -0.121292,11.789011 0.02233,22.702445 -0.05741,45.405205 0.07589,68.107425 0.62287,8.72441 8.568605,16.1935 17.310542,16.29687 4.53491,0.23222 8.83557,-1.71011 12.55478,-4.13429 21.45118,-12.38715 42.93084,-24.72674 64.32413,-37.21141 7.27102,-4.86801 9.81788,-15.47969 5.56801,-23.12525 -2.08303,-4.09969 -5.96693,-6.89015 -9.97625,-8.9232 -21.40047,-12.345667 -42.77538,-24.736884 -64.22653,-36.992565 -2.57497,-1.214308 -5.4268,-1.797792 -8.27148,-1.716797 z" /><path
   id="path1"
   style="fill:#e52343;fill-rule:nonzero;stroke:none;stroke-width:2.55452;stroke-linecap:butt;stroke-linejoin:miter;stroke-miterlimit:10;stroke-dasharray:none;fill-opacity:1"
   d="M 128 13.046875 C 64.614697 13.046875 13.046875 64.614697 13.046875 128 C 13.046875 191.38531 64.614697 242.95312 128 242.95312 C 191.38531 242.95313 242.95312 191.38531 242.95312 128 C 242.95313 64.614697 191.38531 13.046875 128 13.046875 z M 128 38.591797 C 177.29968 38.591797 217.4082 78.70032 217.4082 128 C 217.4082 177.29968 177.29968 217.4082 128 217.4082 C 78.70032 217.4082 38.591797 177.29968 38.591797 128 C 38.591797 78.70032 78.70032 38.591797 128 38.591797 z M 101.89258 83.941406 C 98.811469 83.995411 96.009766 86.475263 96.009766 89.925781 L 96.009766 128 L 96.009766 166.08008 C 96.009766 170.68076 100.98761 173.55493 104.97266 171.25586 L 137.95312 152.2168 L 170.93164 133.17578 C 174.91414 130.87671 174.91414 125.12524 170.93164 122.82617 L 137.95312 103.78906 L 104.97266 84.75 C 103.97703 84.175233 102.91961 83.923405 101.89258 83.941406 z " />&#10;</svg>
