<svg viewBox="0 0 24 24" xmlns="http://www.w3.org/2000/svg"><path d="M21.344 8.811s-.839-.402-1.708-.134c-.651.192-1.365.684-1.77 1.708-.783 1.965-.105 5.39-.37 5.39-.266 0-1.1-3.155-2.215-6.44-1.115-3.285-2.081-6.703-3.823-6.428-1.546.243-1.065 4.137-.462 7.783.55 3.305 1.183 6.4.82 6.4-.646 0-2.77-9.136-4.949-8.79-2.178.346.628 10.415.04 10.435-.478.007-1.673-6.14-3.43-5.857-1.343.214-.147 4.993-.092 6.327.013.334.117.96-.384.96h-1v.93h1.63c.336-.015.6-.143.735-.473.453-1.115-.737-5.855-.458-5.889.19-.024.604 1.419 1.18 3.05.576 1.632 1.153 3.322 2.246 3.322 2.358 0-.047-9.246.42-9.246.247 0 .922 1.879 1.663 3.94.907 2.517 2.013 5.31 3.348 5.31 1.593 0 1.073-3.607.581-7.063-.427-2.99-.927-5.802-.66-5.802.601 0 2.871 12.861 5.6 12.861 1.366 0 1.382-2.684 1.382-5.588 0-2.036-.17-3.891 1.108-4.337.608-.212 1.224.164 1.224.164z" color="#000" style="-inkscape-stroke:none"/></svg>